<?xml version="1.0" standalone="no"?><!DOCTYPE svg PUBLIC "-//W3C//DTD SVG 1.1//EN" "http://www.w3.org/Graphics/SVG/1.1/DTD/svg11.dtd"><svg t="1679993192920" class="icon" viewBox="0 0 1024 1024" version="1.1" xmlns="http://www.w3.org/2000/svg" p-id="6988" xmlns:xlink="http://www.w3.org/1999/xlink" width="200" height="200"><path d="M947.316 759.116c34.93-67.408 54.682-143.95 54.682-225.114C1001.998 263.384 782.62 44.004 512 44.004c-270.618 0-489.998 219.38-489.998 489.998 0 81.162 19.752 157.704 54.682 225.112z" fill="#3B3868" p-id="6989"></path><path d="M804.482 927.16c60.038-44.738 109.488-102.896 143.888-170.044V138c0-14.744-11.952-26.698-26.696-26.698h-117.192z" fill="#D3DCFB" p-id="6990"></path><path d="M877.008 635.384h-1.164c-33.55 0-61.934-22.122-71.362-52.574V927.16c60.038-44.738 109.488-102.896 143.888-170.044v-174.306c-9.428 30.452-37.81 52.574-71.362 52.574z" fill="#BEC8F7" p-id="6991"></path><path d="M809.736 20.086C809.736 8.994 800.742 0 789.648 0H265.84a95.634 95.634 0 0 0-67.626 28.012L103.642 122.582a95.63 95.63 0 0 0-28.012 67.624v566.908C156.804 915.56 321.738 1024 512 1024c112.004 0 215.208-37.606 297.736-100.842z" fill="#E9EFFF" p-id="6992"></path><path d="M382.452 0.002L265.838 0a95.634 95.634 0 0 0-67.626 28.012L103.642 122.582a95.63 95.63 0 0 0-28.012 67.624v566.908c51.094 99.73 135.378 179.636 238.268 225.172a76.616 76.616 0 0 1-8.766-35.608V77.322c-0.002-42.526 34.794-77.32 77.32-77.32z" fill="#D3DCFB" p-id="6993"></path><path d="M704.2 271.328H175.912a15.9 15.9 0 0 1-15.898-15.898V137.618a15.9 15.9 0 0 1 15.898-15.898H704.2a15.9 15.9 0 0 1 15.898 15.898v117.814a15.9 15.9 0 0 1-15.898 15.896z" fill="#FF4155" p-id="6994"></path><path d="M295.9 255.43V137.618a15.898 15.898 0 0 1 15.896-15.898H175.912a15.896 15.896 0 0 0-15.896 15.898v117.814a15.896 15.896 0 0 0 15.896 15.898h135.886a15.9 15.9 0 0 1-15.898-15.9z" fill="#E80054" p-id="6995"></path><path d="M386.788 343.164H175.88a15.866 15.866 0 0 0-15.866 15.866v43.074a15.866 15.866 0 0 0 15.866 15.866h210.908a15.866 15.866 0 0 0 15.866-15.866v-43.074a15.866 15.866 0 0 0-15.866-15.866z" fill="#89E56A" p-id="6996"></path><path d="M704.232 343.164H493.324a15.866 15.866 0 0 0-15.866 15.866v43.074a15.866 15.866 0 0 0 15.866 15.866h210.908a15.866 15.866 0 0 0 15.866-15.866v-43.074a15.866 15.866 0 0 0-15.866-15.866z" fill="#FFDD40" p-id="6997"></path><path d="M386.788 698.098H175.88a15.866 15.866 0 0 0-15.866 15.866v43.074a15.866 15.866 0 0 0 15.866 15.866h210.908a15.866 15.866 0 0 0 15.866-15.866v-43.074a15.866 15.866 0 0 0-15.866-15.866z" fill="#827DF9" p-id="6998"></path><path d="M704.232 698.098H493.324a15.866 15.866 0 0 0-15.866 15.866v43.074a15.866 15.866 0 0 0 15.866 15.866h210.908a15.866 15.866 0 0 0 15.866-15.866v-43.074a15.866 15.866 0 0 0-15.866-15.866z" fill="#42C3FC" p-id="6999"></path><path d="M285.334 402.102v-43.074a15.866 15.866 0 0 1 15.866-15.866H175.88a15.866 15.866 0 0 0-15.866 15.866v43.074a15.866 15.866 0 0 0 15.866 15.866h125.32a15.866 15.866 0 0 1-15.866-15.866z" fill="#65D33C" p-id="7000"></path><path d="M602.778 402.102v-43.074a15.866 15.866 0 0 1 15.866-15.866h-125.32a15.866 15.866 0 0 0-15.866 15.866v43.074a15.866 15.866 0 0 0 15.866 15.866h125.32a15.866 15.866 0 0 1-15.866-15.866z" fill="#FFB332" p-id="7001"></path><path d="M285.334 757.036v-43.074a15.866 15.866 0 0 1 15.866-15.866H175.88a15.866 15.866 0 0 0-15.866 15.866v43.074a15.866 15.866 0 0 0 15.866 15.866h125.32a15.866 15.866 0 0 1-15.866-15.866z" fill="#746BF9" p-id="7002"></path><path d="M602.778 757.036v-43.074a15.866 15.866 0 0 1 15.866-15.866h-125.32a15.866 15.866 0 0 0-15.866 15.866v43.074a15.866 15.866 0 0 0 15.866 15.866h125.32a15.866 15.866 0 0 1-15.866-15.866z" fill="#1AA9E8" p-id="7003"></path><path d="M720.096 78.82h-67.062a17.166 17.166 0 0 1 0-34.332h67.062a17.164 17.164 0 0 1 17.164 17.166 17.162 17.162 0 0 1-17.164 17.166zM716.378 636.59h-235.2a17.166 17.166 0 0 1 0-34.33h235.2a17.166 17.166 0 0 1 0 34.33zM716.378 571.65h-235.2a17.166 17.166 0 0 1 0-34.33h235.2a17.166 17.166 0 0 1 0 34.33zM716.378 506.71h-235.2a17.166 17.166 0 0 1 0-34.332h235.2a17.166 17.166 0 0 1 0 34.332zM716.378 859.734h-235.2a17.166 17.166 0 0 1 0-34.332h235.2a17.166 17.166 0 0 1 0 34.332zM716.378 924.674h-235.2a17.166 17.166 0 0 1 0-34.33h235.2a17.166 17.166 0 0 1 0 34.33zM733.478 971.186c-0.648-8.888-8.048-15.902-17.102-15.902h-235.2a17.164 17.164 0 1 0 0 34.33h211.466a486.482 486.482 0 0 0 40.836-18.428zM398.934 636.59h-235.2a17.164 17.164 0 0 1 0-34.33h235.2a17.164 17.164 0 0 1 17.164 17.164 17.162 17.162 0 0 1-17.164 17.166zM398.934 571.65h-235.2a17.164 17.164 0 0 1 0-34.33h235.2a17.164 17.164 0 0 1 17.164 17.164 17.164 17.164 0 0 1-17.164 17.166zM398.934 506.71h-235.2a17.166 17.166 0 0 1 0-34.332h235.2a17.164 17.164 0 0 1 17.164 17.166 17.164 17.164 0 0 1-17.164 17.166zM398.934 859.734h-235.2a17.166 17.166 0 0 1 0-34.332h235.2a17.164 17.164 0 0 1 17.164 17.166 17.162 17.162 0 0 1-17.164 17.166zM398.934 890.344H175.702a492.404 492.404 0 0 0 40.542 34.33h182.69a17.164 17.164 0 1 0 0-34.33zM398.934 955.284h-137.256a488.086 488.086 0 0 0 69.678 34.33h67.576c9.48 0 17.164-7.686 17.164-17.166s-7.682-17.164-17.162-17.164zM103.64 122.582a95.64 95.64 0 0 0-28.012 67.626v12.038c0-43.054 42.382-50.578 63.552-51.652h49.964c20.476 0 37.076-16.6 37.076-37.076V67.824C226.224 22.132 265.838 0 265.838 0a95.634 95.634 0 0 0-67.626 28.012z" fill="#BEC8F7" p-id="7004"></path><path d="M156.754 69.47L103.642 122.582a95.634 95.634 0 0 0-28.012 67.626v12.036c0-43.054 42.382-50.578 63.552-51.652h49.964c20.476 0 37.076-16.6 37.076-37.076-66.354 11.556-69.468-44.044-69.468-44.046z" fill="#A2B6F4" p-id="7005"></path></svg>